<?xml version="1.0" encoding="UTF-8" standalone="no"?>
<!-- Generator: Adobe Illustrator 22.0.1, SVG Export Plug-In . SVG Version: 6.00 Build 0)  -->

<svg
   xmlns:dc="http://purl.org/dc/elements/1.1/"
   xmlns:cc="http://creativecommons.org/ns#"
   xmlns:rdf="http://www.w3.org/1999/02/22-rdf-syntax-ns#"
   xmlns:svg="http://www.w3.org/2000/svg"
   xmlns="http://www.w3.org/2000/svg"
   xmlns:sodipodi="http://sodipodi.sourceforge.net/DTD/sodipodi-0.dtd"
   xmlns:inkscape="http://www.inkscape.org/namespaces/inkscape"
   version="1.1"
   id="Layer_1"
   x="0px"
   y="0px"
   viewBox="0 0 85 25"
   style="enable-background:new 0 0 85 25;"
   xml:space="preserve"
   inkscape:version="0.91 r13725"
   sodipodi:docname="galaxy-logo-03.svg"><metadata
     id="metadata29"><rdf:RDF><cc:Work
         rdf:about=""><dc:format>image/svg+xml</dc:format><dc:type
           rdf:resource="http://purl.org/dc/dcmitype/StillImage" /></cc:Work></rdf:RDF></metadata><defs
     id="defs27" /><sodipodi:namedview
     pagecolor="#ffffff"
     bordercolor="#666666"
     borderopacity="1"
     objecttolerance="10"
     gridtolerance="10"
     guidetolerance="10"
     inkscape:pageopacity="0"
     inkscape:pageshadow="2"
     inkscape:window-width="1190"
     inkscape:window-height="688"
     id="namedview25"
     showgrid="false"
     inkscape:zoom="7.2941176"
     inkscape:cx="2.3713981"
     inkscape:cy="8.8622178"
     inkscape:window-x="110"
     inkscape:window-y="46"
     inkscape:window-maximized="0"
     inkscape:current-layer="g5" /><style
     type="text/css"
     id="style3">
	.st0{fill:#1D1D1D;}
	.st1{fill:#FFFFFF;}
	.st2{fill:#5FBDBE;}
</style><g
     id="g5" /><g
     id="g9"><path
       class="st1"
       d="M45.4,21l4.9-13.6h1.8L57.3,21h-2l-1.5-4.2h-5.4L47.1,21H45.4z M49,15.4h4.3L52,11.6c-0.4-1.2-0.7-2.1-0.9-2.8   c-0.2,0.9-0.4,1.7-0.7,2.6L49,15.4z"
       id="path11" /><path
       class="st1"
       d="M58.3,21l4.9-7.1l-4.3-6.5h2l2.3,3.5c0.5,0.7,0.8,1.3,1,1.6c0.3-0.5,0.6-1,1-1.5l2.5-3.6h1.9l-4.5,6.4l4.8,7.2   h-2.1l-3.2-4.9c-0.2-0.3-0.3-0.5-0.6-0.9c-0.3,0.5-0.5,0.8-0.6,1l-3,4.8H58.3z"
       id="path13" /><path
       class="st1"
       d="M76.2,21v-5.8l-4.9-7.9h2l2.5,4.1c0.4,0.7,0.9,1.5,1.3,2.3c0.4-0.7,0.8-1.5,1.4-2.4l2.5-4h2l-5.1,7.9V21H76.2   L76.2,21z"
       id="path15" /><path
       class="st2"
       d="M8.7,13.1c-3.3,2.1-7.1,5-6.5,6.7c1.1,2.9,9.8,3.4,25.4-2.2S49.5,5.9,48.4,3s-14-0.1-14-0.1S44,0.6,45.3,4.1   C46.6,7.7,33.8,13.5,27,16S6.2,21.3,5.2,18.7c-0.5-1.3,1.4-3.3,3.4-5"
       id="path17" /><path
       class="st1"
       d="M14.1,15.6V14h5.4v5.1c-0.8,0.7-1.7,1.3-2.5,1.6c-0.8,0.4-1.8,0.5-2.7,0.5c-1.3,0-2.4-0.3-3.4-0.8   S9.1,19,8.6,18s-0.8-2.3-0.8-3.6c0-1.4,0.3-2.5,0.8-3.7s1.3-2,2.2-2.5s2.1-0.8,3.4-0.8c0.9,0,1.8,0.2,2.5,0.5   c0.8,0.4,1.4,0.7,1.8,1.4c0.4,0.6,0.8,1.3,0.9,2.3l-1.5,0.5c-0.2-0.7-0.4-1.3-0.7-1.6c-0.3-0.4-0.7-0.7-1.2-1s-1.1-0.4-1.8-0.4   c-0.8,0-1.4,0.1-2,0.4s-1,0.5-1.4,1S10.2,11,10,11.6c-0.3,0.8-0.5,1.7-0.5,2.7c0,1.2,0.2,2.3,0.6,3.1c0.4,0.8,0.9,1.5,1.7,1.8   s1.5,0.6,2.4,0.6c0.8,0,1.4-0.2,2.1-0.5c0.7-0.3,1.2-0.6,1.6-1v-2.5h-3.8V15.6z"
       id="path19" /><path
       class="st1"
       d="M35.8,21V7.4h1.7v12.1h6.3v1.6L35.8,21L35.8,21z"
       id="path21" /><path
       class="st1"
       d="M21.5,21l4.9-13.6h1.8L33.5,21h-2L30,16.8h-5.4L23.2,21H21.5z M24.6,16.8H30l-1.9-5.2   c-0.4-1.2-0.7-2.1-0.9-2.8c-0.2,0.9-0.4,1.7-0.7,2.6L24.6,16.8z"
       id="path23" /></g></svg>