<?xml version="1.0" encoding="UTF-8" standalone="no"?>
<!DOCTYPE svg PUBLIC "-//W3C//DTD SVG 1.1//EN" "http://www.w3.org/Graphics/SVG/1.1/DTD/svg11.dtd">
<svg width="100%" height="100%" viewBox="0 0 16 16" version="1.1" xmlns="http://www.w3.org/2000/svg" xmlns:xlink="http://www.w3.org/1999/xlink" xml:space="preserve" xmlns:serif="http://www.serif.com/" style="fill-rule:evenodd;clip-rule:evenodd;stroke-linejoin:round;stroke-miterlimit:2;">
    <path d="M6,2L6,2.984L5.911,2.984C5.711,2.984 5.524,3.024 5.348,3.105C5.175,3.183 5.022,3.289 4.891,3.424C4.764,3.555 4.661,3.71 4.582,3.892C4.508,4.072 4.471,4.26 4.471,4.459C4.471,4.687 4.475,4.913 4.483,5.137C4.491,5.361 4.491,5.583 4.483,5.802C4.479,6.02 4.461,6.233 4.428,6.443C4.395,6.652 4.339,6.853 4.26,7.045C4.181,7.238 4.073,7.423 3.936,7.597C3.823,7.741 3.685,7.875 3.523,8C3.685,8.125 3.823,8.259 3.936,8.403C4.073,8.577 4.181,8.762 4.26,8.955C4.339,9.148 4.395,9.35 4.428,9.563C4.461,9.769 4.479,9.982 4.483,10.204C4.491,10.42 4.491,10.641 4.483,10.869C4.475,11.089 4.471,11.313 4.471,11.541C4.471,11.744 4.508,11.935 4.582,12.114C4.661,12.291 4.764,12.447 4.891,12.582C5.022,12.713 5.174,12.819 5.348,12.901C5.523,12.978 5.711,13.016 5.911,13.016L6,13.016L6,14L5.911,14C5.597,14 5.294,13.938 5.001,13.815C4.708,13.692 4.449,13.515 4.226,13.285C4.003,13.056 3.838,12.805 3.733,12.532L3.732,12.531C3.634,12.265 3.568,11.99 3.535,11.707L3.535,11.706C3.507,11.422 3.499,11.132 3.511,10.836C3.523,10.546 3.529,10.257 3.529,9.967C3.529,9.769 3.49,9.58 3.412,9.401L3.411,9.399C3.337,9.219 3.234,9.064 3.104,8.934L3.102,8.932C2.976,8.798 2.825,8.692 2.647,8.614L2.646,8.613C2.47,8.532 2.285,8.492 2.089,8.492L2,8.492L2,7.508L2.089,7.508C2.285,7.508 2.471,7.47 2.647,7.393C2.825,7.311 2.976,7.204 3.103,7.074C3.234,6.939 3.337,6.783 3.412,6.606L3.412,6.605C3.49,6.426 3.529,6.236 3.529,6.033C3.529,5.743 3.523,5.454 3.511,5.164C3.499,4.868 3.507,4.581 3.535,4.301L3.535,4.299C3.568,4.012 3.634,3.735 3.732,3.469L3.733,3.468C3.838,3.195 4.003,2.944 4.226,2.715C4.449,2.485 4.708,2.308 5.001,2.185C5.294,2.062 5.597,2 5.911,2L6,2ZM13.923,8.492L14,8.492L14,7.508L13.911,7.508C13.715,7.508 13.53,7.468 13.354,7.387L13.353,7.386C13.175,7.308 13.024,7.202 12.898,7.068L12.896,7.066C12.766,6.936 12.663,6.781 12.589,6.601L12.588,6.599C12.51,6.42 12.471,6.231 12.471,6.033C12.471,5.743 12.477,5.454 12.489,5.164C12.501,4.868 12.493,4.578 12.465,4.295L12.465,4.293C12.432,4.01 12.366,3.735 12.268,3.469L12.267,3.468C12.162,3.195 11.997,2.944 11.774,2.715C11.551,2.485 11.292,2.308 10.999,2.185C10.706,2.062 10.403,2 10.089,2L10,2L10,2.984L10.089,2.984C10.289,2.984 10.477,3.022 10.652,3.099C10.826,3.181 10.978,3.287 11.109,3.418C11.236,3.553 11.339,3.709 11.418,3.886C11.492,4.065 11.529,4.256 11.529,4.459C11.529,4.687 11.525,4.911 11.517,5.131C11.509,5.359 11.509,5.58 11.517,5.796C11.521,6.018 11.539,6.231 11.572,6.437C11.605,6.65 11.661,6.852 11.74,7.045C11.819,7.238 11.927,7.423 12.064,7.597C12.177,7.741 12.315,7.875 12.477,8C12.467,8.008 12.456,8.016 12.446,8.025C12.976,8.083 13.476,8.246 13.923,8.492Z" style="fill:rgb(128,128,128);"/>
    <path d="M12,9C11.407,9 10.827,9.176 10.333,9.506C9.84,9.835 9.455,10.304 9.228,10.852C9.001,11.4 8.942,12.003 9.058,12.585C9.173,13.167 9.459,13.702 9.879,14.121C10.298,14.541 10.833,14.827 11.415,14.942C11.997,15.058 12.6,14.999 13.148,14.772C13.696,14.545 14.165,14.16 14.494,13.667C14.824,13.173 15,12.593 15,12C14.999,11.205 14.683,10.442 14.12,9.88C13.558,9.317 12.795,9.001 12,9Z" style="fill:rgb(128,128,128);fill-rule:nonzero;"/>
</svg>
